<svg width="1240" height="32" viewBox="0 0 1240 32" fill="none" xmlns="http://www.w3.org/2000/svg">
<g clip-path="url(#clip0_1_89)">
<path d="M68.3376 7.39728C66.6418 7.38193 64.9798 7.87125 63.5628 8.80302C62.1459 9.73478 61.038 11.0669 60.3802 12.63C59.7224 14.193 59.5442 15.9164 59.8685 17.581C60.1927 19.2456 61.0046 20.7761 62.201 21.978C63.3975 23.1799 64.9243 23.9988 66.5874 24.3306C68.2504 24.6624 69.9746 24.4922 71.5407 23.8415C73.1067 23.1908 74.4439 22.089 75.3821 20.6763C76.3203 19.2636 76.8172 17.6039 76.8096 15.908C76.8121 14.7929 76.595 13.6882 76.1706 12.657C75.7463 11.6258 75.1229 10.6883 74.3362 9.89803C73.5495 9.10773 72.6149 8.48013 71.5856 8.05105C70.5564 7.62197 69.4527 7.39982 68.3376 7.39728ZM68.4054 21.0009C67.7506 21.0093 67.1007 20.8869 66.4938 20.6409C65.8869 20.3948 65.3353 20.03 64.8713 19.5679C64.2914 18.9944 63.8619 18.2867 63.6209 17.5075C63.38 16.7283 63.335 15.9016 63.49 15.1009C63.645 14.3001 63.9952 13.55 64.5095 12.917C65.0238 12.2839 65.6863 11.7876 66.4384 11.4719C67.1905 11.1563 68.0088 11.0311 68.8208 11.1074C69.6329 11.1837 70.4136 11.4592 71.0936 11.9095C71.7737 12.3597 72.3322 12.9708 72.7196 13.6886C73.1069 14.4063 73.3112 15.2086 73.3143 16.0242C73.2852 17.3267 72.7581 18.5685 71.8414 19.4942C70.9247 20.4199 69.6881 20.9591 68.386 21.0009H68.4054ZM87.1406 11.4251C86.5655 11.4327 85.9975 11.5538 85.4694 11.7815C84.9412 12.0092 84.4632 12.3389 84.0628 12.7519C83.6625 13.1649 83.3476 13.6528 83.1364 14.1878C82.9252 14.7228 82.8217 15.2942 82.832 15.8693V23.9927H79.143L79.0946 7.87171H82.7836V10.3988C83.3122 9.62653 84.0177 8.99169 84.8412 8.54709C85.6647 8.10248 86.5825 7.86098 87.5182 7.84266H88.593V11.4251H87.1406ZM50.3479 8.01694L53.1073 19.0741L56.012 7.9879H59.701L55.1406 24.1573H51.5582L48.6535 12.8871L45.8553 24.2057H42.2631L37.422 8.0944H41.0141L44.248 19.1225L46.8332 8.03631L50.3479 8.01694ZM99.4081 15.1625C100.703 14.4057 101.777 13.3227 102.523 12.0213C103.269 10.7199 103.66 9.24577 103.659 7.74584H99.9697C99.9852 9.04705 99.4844 10.3014 98.5771 11.2342C97.6697 12.167 96.4297 12.7021 95.1285 12.7225H94.596L94.5573 0H90.8683L91.0135 23.954H94.7025V16.3631H95.1285C95.3239 16.3417 95.5212 16.3802 95.6941 16.4736C95.8671 16.567 96.0075 16.7108 96.0967 16.8859L101.296 23.925H105.614L99.4081 15.1625Z" fill="#3D544D"/>
<path d="M28.9017 7.59092C24.8932 7.59092 21.853 10.2536 20.7104 14.475C18.8846 11.6323 17.4546 8.5541 16.4599 5.32526H12.2481V16.4986C12.2481 17.5618 11.8258 18.5813 11.0741 19.3331C10.3223 20.0848 9.30275 20.5071 8.23964 20.5071C7.17653 20.5071 6.15695 20.0848 5.40522 19.3331C4.65349 18.5813 4.23117 17.5618 4.23117 16.4986V5.32526L0 5.40272L0.0484115 16.5761C0.0445884 17.6644 0.255643 18.7427 0.669471 19.7493C1.0833 20.7559 1.69176 21.6708 2.45996 22.4417C3.22816 23.2126 4.14098 23.8243 5.14608 24.2416C6.15119 24.659 7.22879 24.8738 8.3171 24.8738C9.40503 24.8587 10.4793 24.6288 11.4781 24.1972C12.4769 23.7657 13.3805 23.1411 14.1372 22.3592C14.8939 21.5774 15.4886 20.6537 15.8872 19.6413C16.2858 18.6289 16.4804 17.5478 16.4599 16.4599V14.5234C17.3455 16.2889 18.3788 17.9764 19.5486 19.5679L16.9924 32L21.3011 31.9516L23.1601 22.9761C24.8951 24.0805 26.9128 24.6589 28.9694 24.6415C31.186 24.5575 33.2831 23.6153 34.8179 22.014C36.3527 20.4126 37.2051 18.2774 37.195 16.0594C37.185 13.8413 36.3133 11.7139 34.764 10.1266C33.2147 8.53921 31.1092 7.6161 28.892 7.55219L28.9017 7.59092ZM28.9598 20.3328C27.205 20.2867 25.5222 19.6253 24.2058 18.4641L24.6221 16.7794V16.6826C24.9319 14.8914 25.8614 11.8415 29.0275 11.8415C30.1447 11.8388 31.2176 12.2782 32.0121 13.0636C32.8065 13.849 33.2582 14.9168 33.2684 16.0339C33.2207 17.1604 32.7512 18.2278 31.953 19.0242C31.1548 19.8205 30.0864 20.2877 28.9598 20.3328Z" fill="#3D544D"/>
</g>
<g clip-path="url(#clip1_1_89)">
<path fill-rule="evenodd" clip-rule="evenodd" d="M220.136 9.37931C220.134 8.21965 219.673 7.10794 218.852 6.28819C218.032 5.46844 216.92 5.00763 215.761 5.0069H209.992V13.8097H215.761C216.34 13.8108 216.914 13.6966 217.449 13.4737C217.984 13.2508 218.469 12.9236 218.876 12.5112C219.284 12.0989 219.605 11.6096 219.821 11.0719C220.037 10.5342 220.144 9.95879 220.136 9.37931ZM215.761 0C218.25 3.71001e-08 220.638 0.989047 222.399 2.74956C224.159 4.51008 225.148 6.89784 225.148 9.38759C225.148 11.8773 224.159 14.2651 222.399 16.0256C220.638 17.7861 218.25 18.7752 215.761 18.7752H209.992V31.6662H205.002V0H215.761ZM241.532 18.4414C241.208 17.1949 240.479 16.0916 239.459 15.3058C238.439 14.52 237.186 14.0964 235.898 14.1021C233.14 14.1021 230.878 15.8621 230.257 18.4414H241.532ZM235.948 9.68C242.403 9.68 246.911 14.8193 246.911 22.1738V22.571H230.257C231.143 25.3297 233.534 27.1614 236.351 27.1614C239.286 27.1614 241.501 25.3131 242.315 24.5186L242.624 24.2207L245.623 27.8786L245.363 28.1324C242.836 30.6152 239.623 31.9945 236.309 31.9945C229.965 31.9945 225.013 26.9655 225.013 20.5435C225.001 19.1087 225.276 17.6862 225.822 16.3592C226.367 15.0322 227.172 13.8274 228.19 12.8156C229.207 11.8038 230.416 11.0052 231.746 10.4668C233.076 9.92835 234.5 9.66086 235.934 9.68H235.948ZM255.065 3.37931V10H261.887V14.4772H255.052V23.8566C255.047 24.2271 255.116 24.5948 255.255 24.9381C255.395 25.2815 255.601 25.5935 255.863 25.8559C256.124 26.1183 256.436 26.3258 256.779 26.4661C257.122 26.6064 257.489 26.6768 257.86 26.6731H261.791V31.68H257.777C253.087 31.68 250.053 28.5931 250.053 23.8152V3.40138L255.065 3.37931ZM281.068 20.7972C281.057 19.5858 280.687 18.4048 280.006 17.4031C279.324 16.4014 278.362 15.6237 277.239 15.168C276.117 14.7123 274.884 14.599 273.698 14.8423C272.511 15.0857 271.423 15.6748 270.57 16.5354C269.717 17.3961 269.138 18.4898 268.906 19.6789C268.674 20.8679 268.799 22.0991 269.265 23.2172C269.731 24.3354 270.518 25.2906 271.526 25.9626C272.534 26.6345 273.719 26.9931 274.93 26.9931C275.739 26.9891 276.54 26.8256 277.286 26.512C278.032 26.1983 278.708 25.7407 279.277 25.1652C279.846 24.5897 280.296 23.9077 280.601 23.1582C280.906 22.4087 281.06 21.6064 281.054 20.7972H281.068ZM281.62 12.1379V10.0138H285.989V31.6662H281.636V29.5421C279.746 31.1384 277.349 32.0097 274.875 32C273.395 32.0233 271.925 31.7518 270.55 31.2014C269.176 30.651 267.925 29.8327 266.87 28.7941C265.814 27.7555 264.977 26.5173 264.405 25.1518C263.833 23.7862 263.538 22.3205 263.538 20.84C263.538 19.3595 263.833 17.8938 264.405 16.5282C264.977 15.1627 265.814 13.9245 266.87 12.8859C267.925 11.8473 269.176 11.029 270.55 10.4786C271.925 9.92819 273.395 9.65673 274.875 9.68C277.333 9.68977 279.711 10.5593 281.595 12.1379H281.62ZM290.519 31.6662V1.66897H295.485V31.6662H290.519Z" fill="#3D544D"/>
</g>
<g clip-path="url(#clip2_1_89)">
<path d="M421.648 31.9999L481.437 26.8178H416.466L421.648 31.9999Z" fill="#3D544D"/>
<path d="M495.299 5.44123C494.073 5.46988 492.881 5.85228 491.866 6.54245V5.8299H487.85V23.4493H491.866V13.1497C491.838 12.6985 491.902 12.2462 492.056 11.8209C492.209 11.3955 492.448 11.0061 492.757 10.6765C493.067 10.347 493.44 10.0843 493.855 9.90479C494.27 9.72525 494.718 9.63263 495.17 9.63263C495.622 9.63263 496.069 9.72525 496.484 9.90479C496.899 10.0843 497.273 10.347 497.583 10.6765C497.892 11.0061 498.131 11.3955 498.284 11.8209C498.437 12.2462 498.502 12.6985 498.474 13.1497V23.5141H502.49V13.1497C502.49 8.87443 499.575 5.44123 495.299 5.44123Z" fill="#3D544D"/>
<path d="M478.587 5.37655C473.923 5.37655 470.619 9.45752 470.619 14.6397C470.619 20.081 474.765 23.9029 478.975 23.9029C481.113 23.9029 483.769 23.1903 486.036 19.9515L482.473 17.8786C479.753 21.8948 475.154 19.8867 474.635 15.8057H486.166C487.202 9.58708 483.121 5.37655 478.587 5.37655ZM474.894 12.3725C475.737 8.29153 481.307 8.03242 482.085 12.3725H474.894Z" fill="#3D544D"/>
<path d="M462.069 17.6194C462.033 18.4269 462.16 19.2332 462.443 19.9904C462.726 20.7476 463.158 21.44 463.714 22.0264C464.27 22.6129 464.939 23.0812 465.68 23.4036C466.421 23.726 467.22 23.8958 468.028 23.9028C469.394 23.855 470.727 23.4771 471.915 22.8016L469.324 19.3036C468.926 19.5875 468.452 19.7454 467.963 19.7571C467.696 19.7495 467.434 19.687 467.192 19.5735C466.951 19.46 466.735 19.2979 466.559 19.0973C466.382 18.8967 466.249 18.662 466.168 18.4077C466.086 18.1534 466.058 17.8851 466.085 17.6194V10.0405H469.518V5.82993H466.085V1.42507H462.069V5.82993H459.931V10.0405H462.069V17.6194Z" fill="#3D544D"/>
<path d="M451.121 23.9028C452.348 23.8742 453.54 23.4918 454.555 22.8016V23.4494H458.571V5.82996H454.555V16.1943C454.583 16.6456 454.518 17.0978 454.365 17.5232C454.212 17.9486 453.973 18.338 453.664 18.6676C453.354 18.9971 452.98 19.2598 452.565 19.4393C452.15 19.6188 451.703 19.7114 451.251 19.7114C450.799 19.7114 450.352 19.6188 449.937 19.4393C449.522 19.2598 449.148 18.9971 448.838 18.6676C448.529 18.338 448.29 17.9486 448.137 17.5232C447.984 17.0978 447.919 16.6456 447.947 16.1943V5.82996H443.931V16.1943C443.931 20.4696 446.846 23.9028 451.121 23.9028Z" fill="#3D544D"/>
<path d="M432.854 16.2591L438.814 23.5142H444.385L436.417 14.1215L443.283 5.82996H437.713L432.854 11.9838V0H428.773V23.5142H432.854V16.2591Z" fill="#3D544D"/>
<path d="M422.49 22.6721V23.4494H426.506V5.82999H422.49V6.60732C421.395 5.81751 420.082 5.38742 418.733 5.37655C414.198 5.37655 410.7 9.5223 410.7 14.6397C410.7 19.7571 414.133 23.9029 418.733 23.9029C420.084 23.9021 421.4 23.471 422.49 22.6721ZM414.781 14.7045C414.781 11.9191 416.401 9.71663 418.668 9.71663C420.935 9.71663 422.49 11.9191 422.49 14.7045C422.49 17.4899 420.935 19.6923 418.668 19.6923C416.401 19.6923 414.781 17.4899 414.781 14.7045Z" fill="#3D544D"/>
<path d="M409.405 9.00402C409.403 6.99448 408.604 5.06774 407.183 3.64679C405.762 2.22583 403.835 1.42679 401.826 1.42507H394.959V23.4494H399.17V16.6477H402.085L407.202 23.4494H412.449L406.231 15.2226C407.223 14.5199 408.03 13.5871 408.583 12.504C409.136 11.4209 409.418 10.2199 409.405 9.00402ZM401.891 12.502H399.17V5.6356H401.891C402.801 5.6356 403.674 5.99731 404.318 6.64116C404.962 7.28501 405.324 8.15825 405.324 9.0688C405.324 9.97934 404.962 10.8526 404.318 11.4964C403.674 12.1403 402.801 12.502 401.891 12.502Z" fill="#3D544D"/>
</g>
<g clip-path="url(#clip3_1_89)">
<path d="M619.629 3.71196C619.629 1.15196 617.197 0.511963 615.277 0.511963V0.895963C616.429 0.895963 617.325 1.27996 617.325 2.17596C617.325 2.68796 616.941 3.45596 615.789 3.45596C614.893 3.45596 612.973 2.94396 611.565 2.43196C609.901 1.79196 608.365 1.27996 607.085 1.27996C604.525 1.27996 602.733 3.19996 602.733 5.37596C602.733 7.29596 604.141 7.93596 604.653 8.19196L604.781 7.93596C604.525 7.67996 604.141 7.42396 604.141 6.65596C604.141 6.14396 604.653 5.24796 605.933 5.24796C607.085 5.24796 608.621 5.75996 610.669 6.39996C612.461 6.91196 614.381 7.29596 615.405 7.42396V11.392L613.485 13.056V13.184L615.405 14.848V20.352C614.381 20.992 613.229 21.12 612.205 21.12C610.285 21.12 608.621 20.608 607.213 19.072L612.461 16.512V7.67996L606.061 10.496C606.573 8.83196 607.981 7.67996 609.389 6.91196L609.261 6.52796C605.421 7.55196 601.965 11.136 601.965 15.488C601.965 20.608 606.189 24.448 610.925 24.448C616.045 24.448 619.373 20.352 619.373 16.128H619.117C618.349 17.792 617.197 19.328 615.789 20.096V14.848L617.837 13.184V13.056L615.789 11.392V7.42396C617.709 7.42396 619.629 6.14396 619.629 3.71196ZM608.493 17.792L606.957 18.56C606.061 17.408 605.549 15.872 605.549 13.696C605.549 12.8 605.549 11.776 605.805 11.008L608.493 9.85596V17.792ZM622.061 20.736L620.397 22.016L620.653 22.272L621.421 21.632L624.237 24.192L628.077 21.632L627.949 21.376L626.925 22.016L625.645 20.736V12.032L626.669 11.264L628.845 13.056V20.864C628.845 25.728 627.821 26.496 625.645 27.264V27.648C629.229 27.776 632.557 26.624 632.557 20.352V11.904L633.709 11.008L633.453 10.752L632.429 11.52L629.229 8.83196L625.645 11.52V1.02396H625.389L620.909 4.09596V4.35196C621.421 4.60796 622.189 4.86396 622.189 6.27196L622.061 20.736ZM645.485 19.328L642.285 21.76L639.085 19.2V17.664L645.101 13.568V13.44L642.029 8.83196L635.373 12.416V20.864L634.093 21.888L634.349 22.144L635.501 21.248L639.853 24.448L645.613 19.84L645.485 19.328ZM639.085 17.152V10.88L639.341 10.752L642.157 15.232L639.085 17.152ZM669.933 2.55996C669.933 2.17596 669.805 1.79196 669.677 1.40796H669.421C669.037 2.43196 668.525 2.94396 667.245 2.94396C666.093 2.94396 665.325 2.30396 664.813 1.79196L661.101 6.01596L661.357 6.27196L662.637 5.11996C663.405 5.75996 664.045 6.27196 665.837 6.39996V17.024L658.285 4.09596C657.645 3.07196 656.749 1.66396 654.957 1.66396C652.909 1.66396 651.117 3.45596 651.373 6.27196H651.757C651.885 5.50396 652.269 4.60796 653.165 4.60796C653.805 4.60796 654.445 5.24796 654.829 5.88796V10.112C652.525 10.112 650.989 11.136 650.989 13.056C650.989 14.08 651.501 15.616 653.037 16V15.744C652.781 15.488 652.653 15.232 652.653 14.848C652.653 14.208 653.165 13.696 654.061 13.696H654.701V19.072C652.013 19.072 649.837 20.608 649.837 23.168C649.837 25.6 651.885 26.752 654.189 26.624V26.368C652.781 26.24 652.141 25.6 652.141 24.704C652.141 23.552 652.909 23.04 653.933 23.04C654.957 23.04 655.853 23.68 656.493 24.448L660.205 20.352L659.949 20.096L659.053 21.12C657.645 19.84 656.877 19.456 655.213 19.2V6.39996L665.453 24.32H666.221V6.39996C668.141 6.27196 669.933 4.73596 669.933 2.55996ZM679.277 19.328L676.077 21.76L672.877 19.2V17.664L678.893 13.568V13.44L675.821 8.83196L669.165 12.416V20.864L667.885 21.888L668.141 22.144L669.293 21.248L673.645 24.448L679.405 19.84L679.277 19.328ZM672.877 17.152V10.88L673.133 10.752L675.949 15.232L672.877 17.152ZM700.141 10.24L699.245 10.88L696.813 8.83196L693.997 11.392L695.149 12.544V22.144L692.077 20.224V12.288L693.101 11.648L690.157 8.83196L687.341 11.392L688.493 12.544V21.76L688.109 22.016L685.421 20.096V12.416C685.421 10.624 684.525 10.112 683.501 9.47196C682.605 8.83196 682.093 8.44796 682.093 7.55196C682.093 6.78396 682.861 6.39996 683.245 6.14396V5.88796C682.221 5.88796 679.533 6.91196 679.533 9.34396C679.533 10.624 680.173 11.136 680.813 11.776C681.453 12.416 682.093 12.928 682.093 14.08V21.504L680.685 22.528L680.941 22.784L682.221 21.76L685.165 24.32L688.365 22.144L691.949 24.32L698.733 20.352V11.776L700.397 10.496L700.141 10.24ZM723.949 3.19996L722.669 4.35196L719.853 1.79196L715.629 4.86396V2.04796H715.245L715.373 22.784C714.989 22.784 713.837 22.528 712.941 22.272L712.685 4.99196C712.685 3.71196 711.789 1.91996 709.485 1.91996C707.181 1.91996 705.645 3.71196 705.645 5.50396H706.029C706.157 4.73596 706.541 4.09596 707.309 4.09596C708.077 4.09596 708.717 4.60796 708.717 6.27196V11.264C706.413 11.392 705.005 12.672 705.005 14.336C705.005 15.36 705.517 16.896 707.053 16.896V16.64C706.541 16.384 706.413 16 706.413 15.744C706.413 14.976 707.053 14.72 708.077 14.72H708.589V22.656C706.669 23.296 705.901 24.704 705.901 26.24C705.901 28.416 707.565 29.952 710.125 29.952C711.917 29.952 713.453 29.696 714.989 29.312C716.269 29.056 717.933 28.672 718.701 28.672C719.725 28.672 720.109 29.184 720.109 29.824C720.109 30.72 719.725 31.104 719.213 31.232V31.488C721.261 31.104 722.541 29.824 722.541 27.904C722.541 25.984 720.621 24.832 718.573 24.832C717.549 24.832 715.373 25.216 713.837 25.472C712.045 25.856 710.253 26.112 709.741 26.112C708.845 26.112 707.821 25.728 707.821 24.448C707.821 23.424 708.717 22.528 710.893 22.528C712.045 22.528 713.453 22.656 714.861 23.04C716.397 23.424 717.805 23.808 719.085 23.808C721.005 23.808 722.669 23.168 722.669 20.48V4.73596L724.205 3.45596L723.949 3.19996ZM718.701 11.008C718.317 11.392 717.805 11.776 717.165 11.776C716.525 11.776 715.885 11.392 715.629 11.008V5.37596L716.909 4.47996L718.701 6.14396V11.008ZM718.701 14.848C718.445 14.592 717.805 14.208 717.165 14.208C716.525 14.208 715.885 14.592 715.629 14.848V11.52C715.885 11.776 716.525 12.16 717.165 12.16C717.805 12.16 718.445 11.776 718.701 11.52V14.848ZM718.701 20.864C718.701 21.888 718.061 22.912 716.653 22.912H715.629V15.36C715.885 15.104 716.525 14.72 717.165 14.72C717.805 14.72 718.317 15.104 718.701 15.36V20.864ZM736.237 11.776L732.141 8.83196L725.869 12.416V20.736L724.589 21.76L724.717 22.016L725.741 21.248L729.837 24.32L736.237 20.48V11.776ZM729.325 19.84V10.624L732.525 12.928V22.016L729.325 19.84ZM748.397 9.08796H748.141C747.757 9.34396 747.373 9.59996 746.989 9.59996C746.477 9.59996 745.837 9.34396 745.581 8.95996H745.325L743.149 11.392L740.973 8.95996L737.133 11.52L737.261 11.776L738.285 11.136L739.565 12.544V20.608L737.901 21.888L738.157 22.144L738.925 21.504L741.997 24.064L745.965 21.376L745.837 21.12L744.685 21.76L743.149 20.48V11.52C743.789 12.16 744.557 12.8 745.453 12.8C747.245 12.928 748.269 11.136 748.397 9.08796ZM763.757 21.376L759.405 24.32L753.517 15.36L757.741 8.83196H757.997C758.509 9.34396 759.277 9.85596 760.173 9.85596C761.069 9.85596 761.709 9.34396 762.093 8.83196H762.349C762.221 11.392 760.429 12.928 759.149 12.928C757.869 12.928 757.229 12.288 756.461 11.904L756.077 12.544L762.477 22.016L763.757 21.248V21.376ZM749.677 20.736L748.013 22.016L748.269 22.272L749.037 21.632L751.853 24.192L755.693 21.632L755.437 21.376L754.413 22.016L753.133 20.736V1.02396H753.005L748.397 4.09596V4.35196C748.909 4.60796 749.677 4.73596 749.677 6.27196V20.736ZM785.005 3.71196C785.005 1.15196 782.573 0.511963 780.653 0.511963V0.895963C781.805 0.895963 782.701 1.27996 782.701 2.17596C782.701 2.68796 782.317 3.45596 781.165 3.45596C780.269 3.45596 778.349 2.94396 776.941 2.43196C775.277 1.91996 773.741 1.40796 772.461 1.40796C769.901 1.40796 768.109 3.32796 768.109 5.50396C768.109 7.42396 769.517 8.06396 770.029 8.31996L770.157 8.06396C769.773 7.80796 769.389 7.55196 769.389 6.78396C769.389 6.27196 769.901 5.37596 771.181 5.37596C772.333 5.37596 773.869 5.88796 775.917 6.52796C777.709 7.03996 779.629 7.42396 780.653 7.55196V11.52L778.733 13.184V13.312L780.653 14.976V20.48C779.629 21.12 778.477 21.248 777.453 21.248C775.533 21.248 773.869 20.736 772.461 19.2L777.709 16.64V7.67996L771.309 10.496C771.949 8.83196 773.357 7.67996 774.637 6.78396L774.509 6.52796C770.669 7.55196 767.213 11.008 767.213 15.36C767.213 20.48 771.437 24.32 776.173 24.32C781.293 24.32 784.621 20.224 784.621 16H784.365C783.597 17.664 782.445 19.2 781.037 19.968V14.72L783.085 13.056V12.928L781.165 11.264V7.42396C783.085 7.42396 785.005 6.14396 785.005 3.71196ZM773.869 17.792L772.333 18.56C771.437 17.408 770.925 15.872 770.925 13.696C770.925 12.8 771.053 11.776 771.309 11.008L773.997 9.85596L773.869 17.792ZM789.485 2.43196H789.357L786.797 4.60796V4.73596L788.973 7.16796H789.229L791.789 4.99196V4.86396L789.485 2.43196ZM793.325 21.376L792.301 22.016L791.021 20.736V11.904L792.301 11.008L792.045 10.752L791.149 11.52L788.845 8.83196L785.133 11.392L785.389 11.776L786.285 11.136L787.437 12.544V20.864L785.773 22.144L785.901 22.4L786.797 21.76L789.613 24.32L793.453 21.76L793.325 21.376ZM814.701 21.248L813.805 21.888L812.397 20.608V11.904L813.677 10.88L813.421 10.624L812.397 11.52L809.453 8.83196L805.613 11.52L802.669 8.83196L799.085 11.52L796.781 8.83196L793.069 11.392L793.197 11.776L794.093 11.136L795.373 12.544V20.864L794.349 21.888L797.293 24.32L800.109 21.76L798.957 20.608V11.904L800.109 11.136L802.029 12.928V20.608L801.005 21.632L803.949 24.064L806.765 21.504L805.613 20.352V11.904L806.637 11.264L808.685 13.056V20.736L807.789 21.632L810.733 24.32L814.701 21.632V21.248ZM825.837 19.328L822.637 21.76L819.437 19.2V17.664L825.453 13.568V13.44L822.381 8.83196L815.725 12.416V21.12L820.205 24.32L825.965 19.712L825.837 19.328ZM819.437 17.152V10.88L819.693 10.752L822.509 15.232L819.437 17.152ZM837.485 16L835.053 14.08C836.717 12.672 837.357 10.752 837.357 9.47196V8.70396H837.101C836.845 9.34396 836.333 9.98396 835.309 9.98396C834.285 9.98396 833.645 9.47196 833.005 8.70396L827.245 11.904V16.512L829.421 18.176C827.245 20.096 826.861 21.376 826.861 22.4C826.861 23.68 827.501 24.576 828.525 24.96L828.653 24.704C828.397 24.448 828.141 24.32 828.141 23.68C828.141 23.296 828.653 22.656 829.677 22.656C830.957 22.656 831.725 23.552 832.109 23.936L837.613 20.608V16H837.485ZM836.077 12.16C835.181 13.696 833.261 15.232 832.109 16L830.701 14.848V10.368C831.213 11.648 832.621 12.672 834.029 12.672C834.925 12.672 835.437 12.544 836.077 12.16ZM833.901 22.4C833.261 20.992 831.725 19.968 830.189 19.968C829.805 19.968 828.781 19.968 827.757 20.608C828.397 19.584 830.061 17.792 832.237 16.512L833.773 17.792L833.901 22.4Z" fill="#3D544D"/>
</g>
<g clip-path="url(#clip4_1_89)">
<path fill-rule="evenodd" clip-rule="evenodd" d="M1039.94 4.73144C1040.05 5.16687 1039.56 5.58515 1039.31 5.90515C1037.18 8.57144 1034.82 11.7257 1031.98 13.7509C1032.18 14.8114 1032.07 16.2194 1031.7 16.9966C1032.45 17.9429 1033.24 18.8389 1033.7 20.064C1033.09 23.264 1031.69 25.7463 1029.44 27.3691C1027.25 28.9509 1024.3 29.5749 1020.94 30.3451C1014.45 31.8366 1003.77 33.3074 998.955 29.4423C993.741 32.4914 983.205 32.8937 978.329 29.2617C974.862 33.6354 961.188 33.2514 963.222 24.5726C960.686 26.4869 956.937 29.1257 953.359 30.616C949.211 32.3417 941.355 32.1474 942.14 26.2869C942.235 25.5886 942.531 25.1943 942.865 24.5726C941.651 22.4617 940.884 20.9966 940.15 19.1611C939.448 17.4011 938.376 15.3977 938.25 12.9394C937.987 7.70972 942.076 4.3943 946.124 2.83658C948.189 2.0423 949.867 0.891437 951.913 0.314294C954.97 -0.554277 957.59 1.12229 957.793 3.92115C961.347 2.86972 965.675 1.70972 970.369 2.38858C974.106 -0.508564 981.404 1.28115 986.201 2.65715C987.285 2.96915 988.745 3.77487 989.548 3.74058C990.228 3.71315 991.457 2.79315 992.17 2.47772C995.535 0.989723 999.935 -0.594277 1004.75 0.222866C1005.66 0.376009 1006.49 0.857151 1007.46 0.942866C1008.12 1.00344 1008.92 0.797723 1009.63 0.76458C1020.87 0.217152 1030.23 3.22515 1039.94 4.73144ZM1008.46 4.37258C1007.31 4.50972 1006.49 5.7623 1005.74 6.17601C1005.8 6.1703 1005.85 6.16115 1005.83 6.08458C1005.97 5.46972 1006.23 4.97944 1006.28 4.2823C1000.26 2.16801 994.403 5.2583 990.091 7.6183C986.642 9.50401 983.565 11.7211 981.405 13.9303C982.186 12.6046 983.014 11.2926 983.939 10.0537C984.876 8.79544 985.919 7.65715 986.745 6.53715C984.941 6.0663 983.133 5.56915 981.314 5.18287C978.729 4.6343 975.133 3.72572 972.991 4.91315C972.372 5.25601 971.865 6.10058 971.273 6.17601C970.782 6.23887 969.975 5.8823 969.372 5.81601C967.162 5.5703 965.127 5.77487 963.13 6.17601C961.259 6.54972 957.303 7.21258 956.796 8.97029C956.471 10.0994 957.196 11.1932 957.068 12.3097C956.945 13.4069 955.886 14.8606 955.349 15.736C954.692 16.8103 954.023 17.7611 952.906 18.2606C952.229 14.9006 952.965 11.912 953.54 9.06287C953.894 7.3063 954.609 5.50858 953.994 3.74058C952.268 3.50172 950.815 4.86287 949.107 5.54287C945.898 6.82287 942.324 7.98972 941.87 11.6766C941.614 13.7531 942.397 15.0731 942.956 16.5474C944.06 19.4973 945.552 22.2873 947.39 24.8446C946.91 25.7223 945.782 25.9509 945.669 27.1874C946.18 27.9074 947.243 28.0034 948.293 28C951.329 27.9931 953.818 26.4709 956.073 25.2046C960.982 22.4503 964.281 18.2114 967.745 14.2023C968.353 13.4971 968.853 12.648 969.645 12.2183C970.422 15.7806 968.91 17.6857 967.834 20.6046C967.419 21.7291 966.11 25.2491 966.748 26.9166C967.447 28.7509 973.403 28.8309 974.981 27.6411C975.777 27.0411 976.093 25.6869 976.521 24.8446C977.066 23.7611 977.538 22.8263 977.967 21.8686C977.991 25.8194 980.935 26.9794 984.118 27.8206C990.884 29.6034 997.707 26.4183 1001.4 24.2149C1000.94 27.1417 1002.08 27.4354 1004.38 27.912C1010.35 29.1394 1016.36 27.7234 1021.21 26.5577C1025.66 25.4903 1029.24 24.736 1029.9 20.3337C1029.18 19.72 1027.41 19.7966 1026.19 19.9749C1022.6 20.4983 1019.13 22.3063 1014.34 21.9577C1013.46 21.8949 1011.58 21.5909 1011.44 21.0571C1011.23 20.2251 1012.72 19.6423 1013.98 19.4343C1017.57 18.8286 1022.75 19.44 1025.64 18.3486C1027.03 17.8274 1028.71 16.3211 1028.54 14.6526C1028.43 13.5257 1026.95 12.936 1025.55 12.8503C1021.59 12.6034 1018.76 14.9074 1014.61 14.112C1015.13 13.4583 1015.22 12.3806 1015.87 11.8583C1018.91 11.7943 1021.86 12.3954 1024.74 12.2183C1028.74 11.9691 1030.99 10.2903 1032.88 8.06972C1033.09 7.82972 1033.59 7.57258 1033.43 7.16915C1026.48 6.11544 1017.02 3.32572 1008.46 4.37258ZM994.703 11.3143C994.258 13.3371 993.326 15.6526 992.804 17.8971C995.679 17.9383 998.713 17.3531 1001.67 17.176C1002.07 16.6434 1002.27 15.9074 1002.48 15.192C1003.08 16.0286 1003.49 17.5943 1002.94 18.7989C998.446 18.736 995.219 22.4023 990.814 22.4057C988.842 22.408 987.165 21.2777 988.099 19.0686C989.418 15.9543 992.689 13.7783 994.703 11.3143ZM1005.2 7.97715C1006.04 8.9383 1007.9 8.89715 1009 9.6023C1007.51 9.98287 1005.64 9.98058 1004.29 10.5017C1004.61 9.6743 1004.89 8.81601 1005.2 7.97715Z" fill="#3D544D"/>
</g>
<g clip-path="url(#clip5_1_89)">
<path d="M1182.59 0L1165.71 12.48C1164.9 9.39131 1163.06 6.66666 1160.51 4.74286C1157.91 2.7729 1154.73 1.70214 1151.46 1.69143H1139.43V30.3314H1151.51C1154.8 30.3912 1158.02 29.345 1160.65 27.36C1163.19 25.4194 1164.98 22.6563 1165.71 19.5429L1182.59 32L1199.43 19.5429V30.3314H1218.42V24.5143H1205.85V1.65714H1198.99V12.4571L1182.99 24.9257L1179.56 22.0229L1187.34 16.2057L1195.54 9.97714L1190.79 6.24L1174.86 18.2857L1171.43 15.3829L1187.43 3.74857L1182.59 0ZM1145.9 7.48571H1151.07C1152.14 7.48345 1153.2 7.70539 1154.17 8.13714C1155.15 8.57449 1156.04 9.19513 1156.79 9.96572C1157.56 10.7654 1158.18 11.7037 1158.6 12.7314C1159.46 14.9052 1159.46 17.3233 1158.6 19.4971C1158.21 20.5257 1157.63 21.4716 1156.89 22.2857C1156.16 23.1036 1155.28 23.7647 1154.28 24.2286C1153.25 24.7067 1152.13 24.9525 1150.99 24.9486H1145.9V7.48571ZM1240 24.5143V30.3314H1221V1.66857H1227.92V24.5257H1240V24.5143Z" fill="#3D544D"/>
</g>
<defs>
<clipPath id="clip0_1_89">
<rect width="105.527" height="32" fill="white"/>
</clipPath>
<clipPath id="clip1_1_89">
<rect width="90.4828" height="32" fill="white" transform="translate(205.002)"/>
</clipPath>
<clipPath id="clip2_1_89">
<rect width="107.53" height="32" fill="white" transform="translate(394.96)"/>
</clipPath>
<clipPath id="clip3_1_89">
<rect width="236.8" height="32" fill="white" transform="translate(601.965)"/>
</clipPath>
<clipPath id="clip4_1_89">
<rect width="101.714" height="32" fill="white" transform="translate(938.24)"/>
</clipPath>
<clipPath id="clip5_1_89">
<rect width="100.571" height="32" fill="white" transform="translate(1139.43)"/>
</clipPath>
</defs>
</svg>
